<?xml version="1.0" encoding="utf-8"?>
<!-- Generator: Adobe Illustrator 27.5.0, SVG Export Plug-In . SVG Version: 6.00 Build 0)  -->
<svg version="1.1" xmlns="http://www.w3.org/2000/svg" xmlns:xlink="http://www.w3.org/1999/xlink" x="0px" y="0px"
	 viewBox="0 0 2200 2200" style="enable-background:new 0 0 2200 2200;" xml:space="preserve">
<g id="background">
	<rect style="fill:#FFFFFF;" width="2200" height="2200"/>
</g>
<g id="Objects">
	<g>
		<path style="fill:#E22424;" d="M1100,902.148c-109.091,0-197.847,88.756-197.847,197.847
			c0,109.104,88.756,197.847,197.847,197.847s197.847-88.743,197.847-197.847C1297.847,990.903,1209.091,902.148,1100,902.148z
			 M1100,1273.861c-95.869,0-173.867-77.985-173.867-173.867c0-95.869,77.997-173.867,173.867-173.867
			c95.869,0,173.867,77.997,173.867,173.867C1273.867,1195.876,1195.869,1273.861,1100,1273.861z"/>
		
			<ellipse transform="matrix(0.2298 -0.9732 0.9732 0.2298 -223.2966 1917.8412)" style="fill:#E22424;" cx="1100" cy="1099.994" rx="54.709" ry="54.709"/>
		<path d="M1960.988,1074.864h-75.215c-3.028-97.236-23.634-191.614-61.396-280.895c-39.599-93.624-96.28-177.695-168.464-249.88
			c-72.186-72.185-156.258-128.865-249.88-168.464c-89.282-37.763-183.66-58.369-280.895-61.397v-75.215
			c0-13.882-11.254-25.136-25.136-25.136c-13.883,0-25.136,11.254-25.136,25.136v75.215
			c-97.237,3.028-191.615,23.634-280.895,61.397c-93.624,39.599-177.696,96.278-249.88,168.464
			c-72.185,72.185-128.865,156.257-168.464,249.88c-37.763,89.281-58.368,183.659-61.396,280.895h-75.215
			c-13.883,0-25.136,11.254-25.136,25.136c0,13.883,11.254,25.136,25.136,25.136h75.215c3.028,97.236,23.634,191.614,61.396,280.896
			c39.6,93.622,96.279,177.695,168.464,249.88c72.184,72.184,156.257,128.865,249.88,168.464
			c89.281,37.762,183.659,58.368,280.895,61.396v75.215c0,13.883,11.254,25.136,25.136,25.136c13.883,0,25.136-11.254,25.136-25.136
			v-75.215c97.236-3.028,191.614-23.634,280.895-61.396c93.622-39.599,177.695-96.28,249.88-168.464
			c72.184-72.186,128.865-156.258,168.464-249.88c37.762-89.281,58.368-183.659,61.396-280.895h75.215
			c13.883,0,25.136-11.254,25.136-25.136C1986.124,1086.118,1974.87,1074.864,1960.988,1074.864z M1366.865,468.226
			c81.639,34.53,154.968,83.974,217.951,146.958c62.984,62.984,112.428,136.313,146.958,217.952
			c32.496,76.827,50.421,158.029,53.408,241.728h-193.797c-2.875-57.529-15.64-113.391-38.058-166.393
			c-24.783-58.595-60.252-111.207-105.421-156.377c-45.169-45.169-97.782-80.638-156.377-105.422
			c-53.002-22.418-108.864-35.183-166.392-38.058V414.819C1208.835,417.806,1290.038,435.731,1366.865,468.226z M1429.782,1125.136
			h60.868c-5.988,95.105-45.859,183.692-113.84,251.673c-67.982,67.981-156.569,107.852-251.673,113.84v-60.868
			c0-13.883-11.254-25.136-25.136-25.136c-13.883,0-25.136,11.254-25.136,25.136v60.868
			c-95.105-5.988-183.692-45.859-251.673-113.84c-67.981-67.982-107.853-156.569-113.84-251.674h60.867
			c13.883,0,25.136-11.254,25.136-25.136c0-13.883-11.254-25.136-25.136-25.136H709.35c5.988-95.105,45.859-183.692,113.84-251.673
			c67.981-67.981,156.568-107.853,251.673-113.84v60.868c0,13.882,11.254,25.136,25.136,25.136
			c13.883,0,25.136-11.254,25.136-25.136V709.35c95.105,5.988,183.691,45.859,251.673,113.84
			c67.981,67.982,107.852,156.569,113.84,251.674h-60.868c-13.883,0-25.136,11.254-25.136,25.136
			C1404.646,1113.883,1415.9,1125.136,1429.782,1125.136z M468.226,833.136c34.53-81.638,83.974-154.969,146.958-217.952
			s136.313-112.427,217.952-146.958c76.827-32.495,158.029-50.421,241.728-53.408v193.797
			c-57.529,2.875-113.391,15.64-166.393,38.058c-58.594,24.783-111.207,60.253-156.376,105.422
			c-45.17,45.17-80.638,97.782-105.422,156.377c-22.417,53.002-35.182,108.863-38.057,166.392H414.819
			C417.806,991.164,435.731,909.963,468.226,833.136z M833.136,1731.774c-81.638-34.53-154.968-83.974-217.952-146.958
			c-62.984-62.983-112.428-136.312-146.958-217.951c-32.495-76.828-50.42-158.03-53.407-241.729h193.797
			c2.875,57.529,15.64,113.391,38.057,166.393c24.784,58.595,60.252,111.208,105.422,156.377
			c45.169,45.169,97.782,80.638,156.376,105.421c53.002,22.418,108.864,35.183,166.393,38.058v193.797
			C991.165,1782.195,909.963,1764.269,833.136,1731.774z M1731.774,1366.865c-34.53,81.639-83.974,154.968-146.958,217.951
			c-62.983,62.984-136.312,112.428-217.951,146.958c-76.827,32.496-158.029,50.421-241.728,53.408v-193.797
			c57.528-2.875,113.39-15.64,166.392-38.058c58.595-24.783,111.208-60.252,156.377-105.421
			c45.169-45.169,80.638-97.782,105.421-156.376c22.418-53.002,35.183-108.864,38.058-166.393h193.797
			C1782.195,1208.835,1764.269,1290.037,1731.774,1366.865z"/>
	</g>
</g>
</svg>
